<svg width="38.000000" height="38.000000" viewBox="0 0 38 38" fill="none" xmlns="http://www.w3.org/2000/svg" xmlns:xlink="http://www.w3.org/1999/xlink">
	<desc>
			Created with Pixso.
	</desc>
	<defs>
		<clipPath id="clip44_11565">
			<rect width="20.000000" height="20.000000" transform="translate(9.000000 9.000000)" fill="white" fill-opacity="0"/>
		</clipPath>
	</defs>
	<rect width="20.000000" height="20.000000" transform="translate(9.000000 9.000000)" fill="#FFFFFF" fill-opacity="0"/>
	<g clip-path="url(#clip44_11565)">
		<path d="M16.1 27.33C16.54 27.33 16.89 26.96 16.89 26.5C16.89 26.03 16.54 25.66 16.1 25.66C15.66 25.66 15.31 26.03 15.31 26.5C15.31 26.96 15.66 27.33 16.1 27.33Z" fill="#F42758" fill-opacity="1.000000" fill-rule="nonzero"/>
		<path d="M16.1 27.33C15.66 27.33 15.31 26.96 15.31 26.5C15.31 26.03 15.66 25.66 16.1 25.66C16.54 25.66 16.89 26.03 16.89 26.5C16.89 26.96 16.54 27.33 16.1 27.33Z" stroke="#F42758" stroke-opacity="1.000000" stroke-width="2.000000" stroke-linejoin="round"/>
		<path d="M24.78 27.33C25.22 27.33 25.57 26.96 25.57 26.5C25.57 26.03 25.22 25.66 24.78 25.66C24.35 25.66 24 26.03 24 26.5C24 26.96 24.35 27.33 24.78 27.33Z" fill="#F42758" fill-opacity="1.000000" fill-rule="nonzero"/>
		<path d="M24.78 27.33C24.35 27.33 24 26.96 24 26.5C24 26.03 24.35 25.66 24.78 25.66C25.22 25.66 25.57 26.03 25.57 26.5C25.57 26.96 25.22 27.33 24.78 27.33Z" stroke="#F42758" stroke-opacity="1.000000" stroke-width="2.000000" stroke-linejoin="round"/>
		<path d="M9.78 9.83L12.94 9.83L15.06 20.99C15.13 21.37 15.33 21.72 15.62 21.96C15.91 22.21 16.27 22.34 16.64 22.33L24.31 22.33C24.68 22.34 25.04 22.21 25.33 21.96C25.62 21.72 25.82 21.37 25.89 20.99L27.15 14L13.73 14" stroke="#F42758" stroke-opacity="1.000000" stroke-width="2.000000" stroke-linejoin="round" stroke-linecap="round"/>
		<path d="M16.4 14.1L24.75 13.85C26.1 13.81 27.1 15.09 26.73 16.39L25.54 20.53C25.3 21.38 24.53 21.97 23.65 21.98L17.49 22.09C16.57 22.1 15.75 21.48 15.53 20.58L14.52 16.6C14.21 15.36 15.12 14.14 16.4 14.1Z" fill="#F42758" fill-opacity="1.000000" fill-rule="evenodd"/>
	</g>
	<rect rx="6.500000" width="37.000000" height="37.000000" transform="translate(0.500000 0.500000)" stroke="#F42758" stroke-opacity="1.000000" stroke-width="1.000000"/>
</svg>
