<svg width="38.000000" height="38.000000" viewBox="0 0 38 38" fill="none" xmlns="http://www.w3.org/2000/svg" xmlns:xlink="http://www.w3.org/1999/xlink">
	<desc>
			Created with Pixso.
	</desc>
	<defs/>
	<circle id="Ellipse 5" cx="19.563843" cy="13.104919" r="4.500000" fill="#F42758" fill-opacity="1.000000"/>
	<path id="Subtract" d="M16.192 18.6049L22.9355 18.6049C22.415 19.9595 21.1017 20.921 19.5638 20.921C18.0259 20.921 16.7125 19.9595 16.192 18.6049ZM14.1075 18.6238C14.699 21.0889 16.9174 22.921 19.5638 22.921C22.2102 22.921 24.4286 21.0889 25.02 18.6238C27.0449 18.821 28.6276 20.5281 28.6276 22.6049L28.6276 25.3951C28.6276 27.6042 26.8367 29.3951 24.6276 29.3951L14.5 29.3951C12.2909 29.3951 10.5 27.6042 10.5 25.3951L10.5 22.6049C10.5 20.5281 12.0826 18.821 14.1075 18.6238Z" clip-rule="evenodd" fill="#F42758" fill-opacity="1.000000" fill-rule="evenodd"/>
	<rect id="profile" rx="6.500000" width="37.000000" height="37.000000" transform="translate(0.500000 0.500000)" stroke="#F42758" stroke-opacity="1.000000" stroke-width="1.000000"/>
</svg>
