<svg width="38.000000" height="38.000000" viewBox="0 0 38 38" fill="none" xmlns="http://www.w3.org/2000/svg" xmlns:xlink="http://www.w3.org/1999/xlink">
	<desc>
			Created with Pixso.
	</desc>
	<defs>
		<clipPath id="clip137_9836">
			<rect id="akar-icons:vk-fill" rx="6.500000" width="37.000000" height="37.000000" transform="translate(0.500000 0.500000)" fill="white" fill-opacity="0"/>
		</clipPath>
	</defs>
	<g clip-path="url(#clip137_9836)">
		<path id="Vector" d="M31.26 12.51C31.44 11.93 31.26 11.5 30.41 11.5L27.6 11.5C26.88 11.5 26.55 11.87 26.37 12.28C26.37 12.28 24.94 15.7 22.92 17.93C22.26 18.57 21.96 18.78 21.61 18.78C21.43 18.78 21.16 18.57 21.16 17.98L21.16 12.51C21.16 11.81 20.96 11.5 20.37 11.5L15.94 11.5C15.5 11.5 15.23 11.82 15.23 12.13C15.23 12.8 16.24 12.95 16.34 14.82L16.34 18.89C16.34 19.78 16.18 19.95 15.82 19.95C14.87 19.95 12.55 16.51 11.17 12.57C10.91 11.8 10.64 11.5 9.92 11.5L7.1 11.5C6.3 11.5 6.14 11.87 6.14 12.28C6.14 13.01 7.09 16.64 10.58 21.44C12.9 24.72 16.18 26.5 19.16 26.5C20.95 26.5 21.17 26.1 21.17 25.42L21.17 22.94C21.17 22.15 21.34 22 21.9 22C22.32 22 23.04 22.2 24.71 23.78C26.61 25.66 26.93 26.5 28 26.5L30.81 26.5C31.62 26.5 32.02 26.1 31.79 25.32C31.53 24.55 30.62 23.42 29.41 22.08C28.76 21.32 27.78 20.5 27.48 20.09C27.06 19.57 27.18 19.33 27.48 18.86C27.48 18.86 30.9 14.12 31.26 12.51L31.26 12.51Z" fill="#F42758" fill-opacity="1.000000" fill-rule="evenodd"/>
	</g>
	<rect id="akar-icons:vk-fill" rx="6.500000" width="37.000000" height="37.000000" transform="translate(0.500000 0.500000)" stroke="#F42758" stroke-opacity="1.000000" stroke-width="1.000000"/>
</svg>
